# xmcd
#
# Track frame offsets:
#	150
#	16156
#	32571
#	52126
#	70771
#	94274
#	115156
#	134833
#	153729
#	168819
#	186190
#
# Disc length: 2755 seconds
#
# Revision: 0
# Processed by: cddbd v1.5.2PL0 Copyright (c) Steve Scherf et al.
# Submitted via: audiograbber 1.83.01
#
DISCID=950ac10b
DTITLE=Roberto Carlos - Emoções Sertanejas - Volume 1
DYEAR=2010
DGENRE=Country
TTITLE0=Victor and Leo - Jesus Cristo
TTITLE1=Roberta Miranda - Eu Disse Adeus
TTITLE2=Zezé Di Camargo and Luciano - O Portão
TTITLE3=Zezé Di Carmargo and Luciano e Daniel - Quando
TTITLE4=Daniel - Do Fundo do Meu Coração
TTITLE5=Rionegro and Solimões - Sentado à Beira do Caminho
TTITLE6=Leonardo - Por Amor
TTITLE7=Chitãozinho and Xororó - Eu Preciso de Você
TTITLE8=Leonardo e Chitãozinho and Xororó - É Preciso Saber Viver
TTITLE9=Roberto Carlos - Como é Grande o Meu Amor Por Você
TTITLE10=Roberto Carlos e Artistas - Eu Quero Apenas Carinho
EXTD=
EXTT0=
EXTT1=
EXTT2=
EXTT3=
EXTT4=
EXTT5=
EXTT6=
EXTT7=
EXTT8=
EXTT9=
EXTT10=
PLAYORDER=
